<!DOCTYPE svg PUBLIC "-//W3C//DTD SVG 1.1//EN" "http://www.w3.org/Graphics/SVG/1.1/DTD/svg11.dtd">
<!-- Uploaded to: SVG Repo, www.svgrepo.com, Transformed by: SVG Repo Mixer Tools -->
<svg width="225px" height="225px" viewBox="-0.64 -0.64 17.28 17.28" xmlns="http://www.w3.org/2000/svg" fill="none" stroke="#000000" stroke-width="0.00016" transform="rotate(0)matrix(1, 0, 0, 1, 0, 0)">
<g id="SVGRepo_bgCarrier" stroke-width="0"/>
<g id="SVGRepo_tracerCarrier" stroke-linecap="round" stroke-linejoin="round" stroke="#CCCCCC" stroke-width="0.032"/>
<g id="SVGRepo_iconCarrier"> <g fill="#000000"> <path d="M9.633 4.323a.75.75 0 011.234.854l-4.5 6.5a.75.75 0 01-1.234-.854l4.5-6.5z"/> <path fill-rule="evenodd" d="M3.25 1A2.25 2.25 0 001 3.25v9.5A2.25 2.25 0 003.25 15h9.5A2.25 2.25 0 0015 12.75v-9.5A2.25 2.25 0 0012.75 1h-9.5zM2.5 3.25a.75.75 0 01.75-.75h9.5a.75.75 0 01.75.75v9.5a.75.75 0 01-.75.75h-9.5a.75.75 0 01-.75-.75v-9.5z" clip-rule="evenodd"/> </g> </g>
</svg>